<?xml version="1.0" encoding="utf-8"?>
<!-- Generator: Adobe Illustrator 27.2.0, SVG Export Plug-In . SVG Version: 6.00 Build 0)  -->
<svg version="1.1" id="Layer_1" xmlns="http://www.w3.org/2000/svg" xmlns:xlink="http://www.w3.org/1999/xlink" x="0px" y="0px"
	 viewBox="0 0 512 512" style="enable-background:new 0 0 512 512;" xml:space="preserve">
<style type="text/css">
	.st0{fill:#0054A6;}
	.st1{fill-rule:evenodd;clip-rule:evenodd;fill:#0054A6;}
	
		.st2{clip-path:url(#SVGID_00000141439311953015691570000015222587676670071732_);fill-rule:evenodd;clip-rule:evenodd;fill:#FFFFFF;}
</style>
<g>
	<path class="st0" d="M243.64,12.36C109.08,12.36,0,121.44,0,256v0c0.01,40.37,10.06,80.11,29.24,115.64
		c1.4,0.33,2.74,0.86,4.05,1.46c4.73,2.17,9.19,5.32,11.84,9.79c1.32,2.24,2.16,4.78,2.27,7.38c0.11,2.57-0.54,5.19-1.94,7.36
		c45.72,63.99,119.53,101.98,198.18,102c134.56,0,243.64-109.08,243.64-243.64C487.28,121.44,378.2,12.36,243.64,12.36L243.64,12.36
		z"/>
	<polyline class="st1" points="468.93,164.41 481.37,158.63 489.77,135.66 498.59,138.75 491.01,159.29 512,166.52 508.84,175.12 
		485.4,166.94 472.47,172.88 	"/>
	<g>
		<defs>
			<circle id="SVGID_1_" cx="243.64" cy="256" r="243.64"/>
		</defs>
		<clipPath id="SVGID_00000055668277626552900630000009192216525058764966_">
			<use xlink:href="#SVGID_1_"  style="overflow:visible;"/>
		</clipPath>
		
			<path style="clip-path:url(#SVGID_00000055668277626552900630000009192216525058764966_);fill-rule:evenodd;clip-rule:evenodd;fill:#FFFFFF;" d="
			M334.22,287.98c-16.78-22.95-49.94-36.3-78.39-42.57s-45.76-11.11-59.59-18.59c-15.78-8.54-28.19-33.72-23.35-55.56
			c7.6-34.27,38.21-58.92,73.16-54.04c17.45,2.47,32.25,11.71,42.01,24.72l38.7,50.84c22.12,28.49,46.99,36.96,74.04,23.51
			l13.16-6.22c1.09-0.51,2.42-1.53,4.56-0.85s3.2,2.53,4.4,4.7c1.2,2.16,2.48,4.16,4.74,4.7c2.26,0.55,5.42,0.17,6.89-1.24
			c10.03-9.56,30.37-29.02,30.37-29.02c5.5-4.71,3.88-9.03,3.88-9.03l-7.57-17.25c0,0-2.07-4.14-9.23-3.18l-42.13,3.87
			c-2.45,0.35-4.63,1.98-5.58,4.47c-0.57,1.45-0.6,2.97-0.19,4.34l1.51,4.85c0.3,1.01,0.3,2.14-0.11,3.17
			c-0.49,1.28-1.47,2.19-2.64,2.67l-11.91,5.04c-13.72,4.66-26.64,2.64-36.1-8.93l-10.81-14.37l-30.78-40.86
			c-14.62-19.39-36.66-33.22-62.7-36.85c-52.13-7.3-100.51,28.8-108.09,80.63c-3.82,26.12-0.23,48.21,19.5,70.78
			c19.73,22.57,58.11,31.17,91.36,38.79c3.56,0.84,13.57,3.32,19.49,5.46c5.48,1.98,18.09,6.63,28.34,15.02
			c12.25,12.45,18.73,30.23,15.98,48.89c-4.63,31.8-34.33,53.96-66.32,49.47c-16.02-2.22-29.55-10.72-38.51-22.61l-36.96-49.06
			c-7.54-10-18.93-17.14-32.41-19.07c-13.45-1.88-26.47,1.85-36.56,9.4l-77.21,57.62c3.27,9.31,7.41,18.56,16.25,26.08l79.6-59.69
			c3.65-2.49,8.17-3.62,12.86-2.98c4.99,0.72,9.24,3.34,12.03,7.05l39.1,52.55c13.77,16.9,33.78,28.86,57.21,32.16
			c49.29,6.9,95.03-27.24,102.19-76.26C351.74,327.72,346.16,305.69,334.22,287.98"/>
	</g>
</g>
</svg>
